<svg width="132" height="38" viewBox="0 0 132 38" fill="none" xmlns="http://www.w3.org/2000/svg">
<path d="M8.65 30.25V21.6H1.19209e-07V16.35H8.65V7.75H13.9V16.35H22.5V21.6H13.9V30.25H8.65ZM28.0156 36.95V31.05L43.1156 17.65C44.249 16.65 45.049 15.7083 45.5156 14.825C45.9823 13.9417 46.2156 13.1167 46.2156 12.35C46.2156 11.25 45.9906 10.275 45.5406 9.425C45.0906 8.55833 44.4573 7.88333 43.6406 7.4C42.824 6.9 41.8656 6.65 40.7656 6.65C39.6156 6.65 38.599 6.91666 37.7156 7.45C36.849 7.96667 36.174 8.65833 35.6906 9.525C35.2073 10.375 34.9823 11.3 35.0156 12.3H28.0156C28.0156 9.83333 28.5573 7.7 29.6406 5.9C30.724 4.1 32.2323 2.70833 34.1656 1.725C36.099 0.741666 38.349 0.249999 40.9156 0.249999C43.2656 0.249999 45.3656 0.766665 47.2156 1.8C49.0823 2.81666 50.549 4.24166 51.6156 6.075C52.6823 7.90833 53.2156 10.0333 53.2156 12.45C53.2156 14.2333 52.9656 15.7167 52.4656 16.9C51.9656 18.0667 51.224 19.15 50.2406 20.15C49.2573 21.1333 48.049 22.25 46.6156 23.5L36.8656 32.05L36.3156 30.55H53.2156V36.95H28.0156ZM72.5414 37.75C69.8747 37.75 67.5414 37.1917 65.5414 36.075C63.5414 34.9583 61.9831 33.4 60.8664 31.4C59.7497 29.4 59.1914 27.0667 59.1914 24.4V13.6C59.1914 10.9333 59.7497 8.6 60.8664 6.6C61.9831 4.6 63.5414 3.04166 65.5414 1.925C67.5414 0.808332 69.8747 0.249999 72.5414 0.249999C75.2081 0.249999 77.5414 0.808332 79.5414 1.925C81.5414 3.04166 83.0997 4.6 84.2164 6.6C85.3331 8.6 85.8914 10.9333 85.8914 13.6V24.4C85.8914 27.0667 85.3331 29.4 84.2164 31.4C83.0997 33.4 81.5414 34.9583 79.5414 36.075C77.5414 37.1917 75.2081 37.75 72.5414 37.75ZM72.5414 31.3C73.7414 31.3 74.8247 31.0167 75.7914 30.45C76.7581 29.8833 77.5247 29.1167 78.0914 28.15C78.6581 27.1833 78.9414 26.1 78.9414 24.9V13.05C78.9414 11.85 78.6581 10.7667 78.0914 9.8C77.5247 8.83333 76.7581 8.06667 75.7914 7.5C74.8247 6.93333 73.7414 6.65 72.5414 6.65C71.3414 6.65 70.2581 6.93333 69.2914 7.5C68.3247 8.06667 67.5581 8.83333 66.9914 9.8C66.4247 10.7667 66.1414 11.85 66.1414 13.05V24.9C66.1414 26.1 66.4247 27.1833 66.9914 28.15C67.5581 29.1167 68.3247 29.8833 69.2914 30.45C70.2581 31.0167 71.3414 31.3 72.5414 31.3ZM98.3828 37L93.8828 32.5L125.383 0.999999L129.883 5.55L98.3828 37ZM122.383 37.75C120.733 37.75 119.224 37.35 117.858 36.55C116.508 35.7333 115.424 34.65 114.608 33.3C113.791 31.9333 113.383 30.4167 113.383 28.75C113.383 27.1167 113.799 25.6167 114.633 24.25C115.466 22.8833 116.566 21.7917 117.933 20.975C119.299 20.1583 120.783 19.75 122.383 19.75C124.033 19.75 125.541 20.1583 126.908 20.975C128.274 21.775 129.358 22.8583 130.158 24.225C130.974 25.575 131.383 27.0833 131.383 28.75C131.383 30.4167 130.974 31.9333 130.158 33.3C129.358 34.65 128.274 35.7333 126.908 36.55C125.541 37.35 124.033 37.75 122.383 37.75ZM122.383 32C122.966 32 123.499 31.85 123.983 31.55C124.483 31.25 124.883 30.8583 125.183 30.375C125.483 29.875 125.633 29.3333 125.633 28.75C125.633 28.1667 125.483 27.6333 125.183 27.15C124.883 26.65 124.483 26.25 123.983 25.95C123.499 25.65 122.966 25.5 122.383 25.5C121.799 25.5 121.258 25.65 120.758 25.95C120.274 26.25 119.883 26.65 119.583 27.15C119.283 27.6333 119.133 28.1667 119.133 28.75C119.133 29.3333 119.283 29.875 119.583 30.375C119.883 30.8583 120.274 31.25 120.758 31.55C121.258 31.85 121.799 32 122.383 32ZM101.383 18.25C99.7328 18.25 98.2245 17.85 96.8578 17.05C95.4911 16.2333 94.3995 15.15 93.5828 13.8C92.7828 12.4333 92.3828 10.9167 92.3828 9.25C92.3828 7.61667 92.7995 6.11666 93.6328 4.75C94.4661 3.38333 95.5661 2.29166 96.9328 1.475C98.2995 0.658332 99.7828 0.249999 101.383 0.249999C103.033 0.249999 104.533 0.658332 105.883 1.475C107.249 2.275 108.341 3.35833 109.158 4.725C109.974 6.075 110.383 7.58333 110.383 9.25C110.383 10.9167 109.974 12.4333 109.158 13.8C108.341 15.15 107.249 16.2333 105.883 17.05C104.533 17.85 103.033 18.25 101.383 18.25ZM101.383 12.5C101.966 12.5 102.499 12.35 102.983 12.05C103.483 11.75 103.883 11.3583 104.183 10.875C104.483 10.375 104.633 9.83333 104.633 9.25C104.633 8.66666 104.483 8.13333 104.183 7.65C103.883 7.15 103.483 6.75 102.983 6.45C102.499 6.15 101.966 6 101.383 6C100.799 6 100.258 6.15 99.7578 6.45C99.2745 6.75 98.8828 7.15 98.5828 7.65C98.2828 8.13333 98.1328 8.66666 98.1328 9.25C98.1328 9.83333 98.2828 10.375 98.5828 10.875C98.8828 11.3583 99.2745 11.75 99.7578 12.05C100.258 12.35 100.799 12.5 101.383 12.5Z" fill="url(#paint0_linear_16_604)"/>
<defs>
<linearGradient id="paint0_linear_16_604" x1="-90.619" y1="2.72727" x2="25.1436" y2="158.696" gradientUnits="userSpaceOnUse">
<stop offset="0.295712" stop-color="#F32C6D"/>
<stop offset="0.854729" stop-color="#CB1D95"/>
</linearGradient>
</defs>
</svg>
