<svg width="121" height="38" viewBox="0 0 121 38" fill="none" xmlns="http://www.w3.org/2000/svg">
<path d="M1.19209e-07 23.85H15V18.6H1.19209e-07V23.85ZM23.2961 37H30.6461L42.6961 7.4V0.999999H19.9961V7.4H35.3961L23.2961 37ZM62.0434 37.75C64.71 37.75 67.0434 37.1917 69.0434 36.075C71.0434 34.9583 72.6017 33.4 73.7184 31.4C74.835 29.4 75.3934 27.0667 75.3934 24.4V13.6C75.3934 10.9333 74.835 8.6 73.7184 6.6C72.6017 4.6 71.0434 3.04166 69.0434 1.925C67.0434 0.808332 64.71 0.249999 62.0434 0.249999C59.3767 0.249999 57.0434 0.808332 55.0434 1.925C53.0434 3.04166 51.485 4.6 50.3684 6.6C49.2517 8.6 48.6934 10.9333 48.6934 13.6V24.4C48.6934 27.0667 49.2517 29.4 50.3684 31.4C51.485 33.4 53.0434 34.9583 55.0434 36.075C57.0434 37.1917 59.3767 37.75 62.0434 37.75ZM62.0434 31.3C60.8434 31.3 59.76 31.0167 58.7934 30.45C57.8267 29.8833 57.06 29.1167 56.4934 28.15C55.9267 27.1833 55.6434 26.1 55.6434 24.9V13.05C55.6434 11.85 55.9267 10.7667 56.4934 9.8C57.06 8.83333 57.8267 8.06667 58.7934 7.5C59.76 6.93333 60.8434 6.65 62.0434 6.65C63.2434 6.65 64.3267 6.93333 65.2934 7.5C66.26 8.06667 67.0267 8.83333 67.5934 9.8C68.16 10.7667 68.4434 11.85 68.4434 13.05V24.9C68.4434 26.1 68.16 27.1833 67.5934 28.15C67.0267 29.1167 66.26 29.8833 65.2934 30.45C64.3267 31.0167 63.2434 31.3 62.0434 31.3ZM90.8848 18.25C92.5348 18.25 94.0348 17.85 95.3848 17.05C96.7514 16.2333 97.8431 15.15 98.6598 13.8C99.4764 12.4333 99.8848 10.9167 99.8848 9.25C99.8848 7.58333 99.4764 6.075 98.6598 4.725C97.8431 3.35833 96.7514 2.275 95.3848 1.475C94.0348 0.658332 92.5348 0.249999 90.8848 0.249999C89.2848 0.249999 87.8014 0.658332 86.4348 1.475C85.0681 2.29166 83.9681 3.38333 83.1348 4.75C82.3014 6.11666 81.8848 7.61667 81.8848 9.25C81.8848 10.9167 82.2931 12.4333 83.1098 13.8C83.9264 15.15 85.0098 16.2333 86.3598 17.05C87.7264 17.85 89.2348 18.25 90.8848 18.25ZM87.8848 37L119.385 5.55L114.885 0.999999L83.3848 32.5L87.8848 37ZM90.8848 12.5C90.0181 12.5 89.2598 12.175 88.6098 11.525C87.9598 10.875 87.6348 10.1167 87.6348 9.25C87.6348 8.36666 87.9598 7.60833 88.6098 6.975C89.2598 6.325 90.0181 6 90.8848 6C91.7681 6 92.5264 6.325 93.1598 6.975C93.8098 7.60833 94.1348 8.36666 94.1348 9.25C94.1348 10.1167 93.8098 10.875 93.1598 11.525C92.5264 12.175 91.7681 12.5 90.8848 12.5ZM111.885 37.75C113.535 37.75 115.035 37.35 116.385 36.55C117.751 35.7333 118.843 34.65 119.66 33.3C120.476 31.9333 120.885 30.4167 120.885 28.75C120.885 27.0833 120.476 25.575 119.66 24.225C118.843 22.8583 117.751 21.775 116.385 20.975C115.035 20.1583 113.535 19.75 111.885 19.75C110.285 19.75 108.801 20.1583 107.435 20.975C106.068 21.7917 104.968 22.8833 104.135 24.25C103.301 25.6167 102.885 27.1167 102.885 28.75C102.885 30.4167 103.285 31.9333 104.085 33.3C104.901 34.65 105.993 35.7333 107.36 36.55C108.726 37.35 110.235 37.75 111.885 37.75ZM111.885 32C111.018 32 110.26 31.675 109.61 31.025C108.96 30.375 108.635 29.6167 108.635 28.75C108.635 27.8667 108.96 27.1083 109.61 26.475C110.26 25.825 111.018 25.5 111.885 25.5C112.768 25.5 113.526 25.825 114.16 26.475C114.81 27.1083 115.135 27.8667 115.135 28.75C115.135 29.6167 114.81 30.375 114.16 31.025C113.526 31.675 112.768 32 111.885 32Z" fill="url(#paint0_linear_16_607)"/>
<defs>
<linearGradient id="paint0_linear_16_607" x1="-83.6349" y1="2.72727" x2="34.5662" y2="149.287" gradientUnits="userSpaceOnUse">
<stop offset="0.295712" stop-color="#F32C6D"/>
<stop offset="0.854729" stop-color="#CB1D95"/>
</linearGradient>
</defs>
</svg>
