<svg width="100" height="31" viewBox="0 0 100 31" fill="none" xmlns="http://www.w3.org/2000/svg">
<path d="M10.84 30.6C8.93333 30.6 7.22 30.1533 5.7 29.26C4.19333 28.3667 3 27.1267 2.12 25.54C1.24 23.94 0.8 22.0933 0.8 20V11.64C0.8 9.37333 1.24 7.42 2.12 5.78C3 4.12667 4.24 2.86 5.84 1.98C7.44 1.08667 9.32 0.639999 11.48 0.639999C12.88 0.639999 14.2133 0.846666 15.48 1.26C16.7467 1.67333 17.9067 2.37333 18.96 3.36L15.08 7.24C14.6 6.76 14.0467 6.38667 13.42 6.12C12.7933 5.85333 12.1467 5.72 11.48 5.72C10.44 5.72 9.53333 5.96666 8.76 6.46C8 6.94 7.40667 7.57333 6.98 8.36C6.56667 9.13333 6.36 9.96 6.36 10.84V15.12L5.44 14.12C6.26667 13.28 7.22 12.64 8.3 12.2C9.39333 11.7467 10.52 11.52 11.68 11.52C13.4933 11.52 15.0867 11.9267 16.46 12.74C17.8467 13.5533 18.9267 14.6667 19.7 16.08C20.4867 17.4933 20.88 19.1067 20.88 20.92C20.88 22.7333 20.42 24.3733 19.5 25.84C18.58 27.2933 17.36 28.4533 15.84 29.32C14.32 30.1733 12.6533 30.6 10.84 30.6ZM10.84 25.4C11.6667 25.4 12.42 25.2 13.1 24.8C13.7933 24.4 14.34 23.86 14.74 23.18C15.1533 22.5 15.36 21.7467 15.36 20.92C15.36 20.0933 15.16 19.34 14.76 18.66C14.36 17.9667 13.82 17.42 13.14 17.02C12.46 16.6067 11.7067 16.4 10.88 16.4C10.0533 16.4 9.29333 16.6067 8.6 17.02C7.92 17.42 7.37333 17.9667 6.96 18.66C6.56 19.34 6.36 20.0933 6.36 20.92C6.36 21.72 6.56 22.46 6.96 23.14C7.36 23.82 7.9 24.3667 8.58 24.78C9.26 25.1933 10.0133 25.4 10.84 25.4ZM31.6906 30V25.48C32.4773 25.6267 33.084 25.62 33.5106 25.46C33.9373 25.2867 34.2573 24.9533 34.4706 24.46C34.6973 23.9533 34.8906 23.2667 35.0506 22.4C35.264 21.2533 35.4506 19.9133 35.6106 18.38C35.784 16.8467 35.9306 15.2267 36.0506 13.52C36.1706 11.8 36.2773 10.0933 36.3706 8.4H52.6906V30H47.2506V13.48H41.1306C41.0773 14.1733 41.004 15 40.9106 15.96C40.8306 16.92 40.7373 17.92 40.6306 18.96C40.5373 19.9867 40.4306 20.9733 40.3106 21.92C40.1906 22.8533 40.064 23.6533 39.9306 24.32C39.6106 26.0133 39.1373 27.3467 38.5106 28.32C37.884 29.2933 37.024 29.9133 35.9306 30.18C34.8373 30.46 33.424 30.4 31.6906 30ZM68.34 30.6C66.1267 30.6 64.1733 30.1267 62.48 29.18C60.8 28.22 59.48 26.9067 58.52 25.24C57.5733 23.56 57.1 21.64 57.1 19.48C57.1 17.12 57.5667 15.0667 58.5 13.32C59.4333 11.5733 60.72 10.22 62.36 9.26C64 8.28667 65.8867 7.8 68.02 7.8C70.2867 7.8 72.2133 8.33333 73.8 9.4C75.3867 10.4667 76.56 11.9667 77.32 13.9C78.08 15.8333 78.3467 18.1067 78.12 20.72H72.74V18.72C72.74 16.52 72.3867 14.94 71.68 13.98C70.9867 13.0067 69.8467 12.52 68.26 12.52C66.4067 12.52 65.04 13.0867 64.16 14.22C63.2933 15.34 62.86 17 62.86 19.2C62.86 21.2133 63.2933 22.7733 64.16 23.88C65.04 24.9733 66.3267 25.52 68.02 25.52C69.0867 25.52 70 25.2867 70.76 24.82C71.52 24.3533 72.1 23.68 72.5 22.8L77.94 24.36C77.1267 26.3333 75.84 27.8667 74.08 28.96C72.3333 30.0533 70.42 30.6 68.34 30.6ZM61.18 20.72V16.68H75.5V20.72H61.18ZM87.1347 30V13.2H80.0547V8.4H99.6547V13.2H92.5747V30H87.1347Z" fill="url(#paint0_linear_16_598)"/>
<defs>
<linearGradient id="paint0_linear_16_598" x1="-67.3968" y1="-0.27273" x2="53.5462" y2="121.348" gradientUnits="userSpaceOnUse">
<stop offset="0.295712" stop-color="#F32C6D"/>
<stop offset="0.854729" stop-color="#CB1D95"/>
</linearGradient>
</defs>
</svg>
