<svg width="184" height="38" viewBox="0 0 184 38" fill="none" xmlns="http://www.w3.org/2000/svg">
<path d="M7.925 37.48C6.365 37.46 5.045 37.115 3.965 36.445C2.885 35.765 2.035 34.83 1.415 33.64C0.805 32.44 0.425 31.05 0.275 29.47C0.195 28.62 0.175 27.665 0.215 26.605C0.265 25.535 0.38 24.485 0.56 23.455C0.74 22.425 0.995 21.54 1.325 20.8C1.645 20.11 2.055 19.48 2.555 18.91C3.065 18.33 3.605 17.84 4.175 17.44C4.845 16.97 5.565 16.61 6.335 16.36C7.105 16.1 7.915 15.9 8.765 15.76C9.615 15.62 10.495 15.495 11.405 15.385C12.325 15.275 13.255 15.13 14.195 14.95L14.555 18.55C13.985 18.7 13.335 18.81 12.605 18.88C11.875 18.95 11.125 19.025 10.355 19.105C9.585 19.175 8.85 19.29 8.15 19.45C7.45 19.61 6.845 19.85 6.335 20.17C5.645 20.6 5.115 21.2 4.745 21.97C4.385 22.73 4.175 23.5 4.115 24.28C4.735 23.38 5.49 22.76 6.38 22.42C7.28 22.08 8.165 21.91 9.035 21.91C10.465 21.91 11.69 22.255 12.71 22.945C13.74 23.625 14.53 24.545 15.08 25.705C15.63 26.855 15.905 28.13 15.905 29.53C15.905 31.12 15.56 32.515 14.87 33.715C14.19 34.915 13.25 35.85 12.05 36.52C10.85 37.18 9.475 37.5 7.925 37.48ZM8.105 33.67C9.265 33.67 10.14 33.31 10.73 32.59C11.32 31.87 11.615 30.91 11.615 29.71C11.615 28.48 11.31 27.515 10.7 26.815C10.1 26.105 9.235 25.75 8.105 25.75C6.955 25.75 6.08 26.105 5.48 26.815C4.89 27.515 4.595 28.48 4.595 29.71C4.595 30.98 4.9 31.96 5.51 32.65C6.12 33.33 6.985 33.67 8.105 33.67ZM26.4955 37.45C24.8655 37.45 23.4355 37.085 22.2055 36.355C20.9755 35.625 20.0155 34.62 19.3255 33.34C18.6455 32.05 18.3055 30.57 18.3055 28.9C18.3055 27.21 18.6555 25.725 19.3555 24.445C20.0555 23.155 21.0205 22.15 22.2505 21.43C23.4805 20.71 24.8955 20.35 26.4955 20.35C28.1255 20.35 29.5555 20.715 30.7855 21.445C32.0255 22.175 32.9905 23.185 33.6805 24.475C34.3705 25.755 34.7155 27.23 34.7155 28.9C34.7155 30.58 34.3655 32.065 33.6655 33.355C32.9755 34.635 32.0105 35.64 30.7705 36.37C29.5405 37.09 28.1155 37.45 26.4955 37.45ZM26.4955 33.64C27.8055 33.64 28.7805 33.2 29.4205 32.32C30.0705 31.43 30.3955 30.29 30.3955 28.9C30.3955 27.46 30.0655 26.31 29.4055 25.45C28.7555 24.59 27.7855 24.16 26.4955 24.16C25.6055 24.16 24.8755 24.36 24.3055 24.76C23.7355 25.16 23.3105 25.715 23.0305 26.425C22.7605 27.135 22.6255 27.96 22.6255 28.9C22.6255 30.35 22.9505 31.505 23.6005 32.365C24.2605 33.215 25.2255 33.64 26.4955 33.64ZM36.5141 37V33.61C37.1041 33.72 37.5591 33.715 37.8791 33.595C38.1991 33.465 38.4391 33.215 38.5991 32.845C38.7691 32.465 38.9141 31.95 39.0341 31.3C39.1941 30.44 39.3341 29.435 39.4541 28.285C39.5841 27.135 39.6941 25.92 39.7841 24.64C39.8741 23.35 39.9541 22.07 40.0241 20.8H52.2641V37H48.1841V24.61H43.5941C43.5541 25.13 43.4991 25.75 43.4291 26.47C43.3691 27.19 43.2991 27.94 43.2191 28.72C43.1491 29.49 43.0691 30.23 42.9791 30.94C42.8891 31.64 42.7941 32.24 42.6941 32.74C42.4541 34.01 42.0991 35.01 41.6291 35.74C41.1591 36.47 40.5141 36.935 39.6941 37.135C38.8741 37.345 37.8141 37.3 36.5141 37ZM64.0011 37.45C62.3411 37.45 60.8761 37.095 59.6061 36.385C58.3461 35.665 57.3561 34.68 56.6361 33.43C55.9261 32.17 55.5711 30.73 55.5711 29.11C55.5711 27.34 55.9211 25.8 56.6211 24.49C57.3211 23.18 58.2861 22.165 59.5161 21.445C60.7461 20.715 62.1611 20.35 63.7611 20.35C65.4611 20.35 66.9061 20.75 68.0961 21.55C69.2861 22.35 70.1661 23.475 70.7361 24.925C71.3061 26.375 71.5061 28.08 71.3361 30.04H67.3011V28.54C67.3011 26.89 67.0361 25.705 66.5061 24.985C65.9861 24.255 65.1311 23.89 63.9411 23.89C62.5511 23.89 61.5261 24.315 60.8661 25.165C60.2161 26.005 59.8911 27.25 59.8911 28.9C59.8911 30.41 60.2161 31.58 60.8661 32.41C61.5261 33.23 62.4911 33.64 63.7611 33.64C64.5611 33.64 65.2461 33.465 65.8161 33.115C66.3861 32.765 66.8211 32.26 67.1211 31.6L71.2011 32.77C70.5911 34.25 69.6261 35.4 68.3061 36.22C66.9961 37.04 65.5611 37.45 64.0011 37.45ZM58.6311 30.04V27.01H69.3711V30.04H58.6311ZM82.253 37.45C80.593 37.45 79.128 37.095 77.858 36.385C76.598 35.665 75.608 34.68 74.888 33.43C74.178 32.17 73.823 30.73 73.823 29.11C73.823 27.34 74.173 25.8 74.873 24.49C75.573 23.18 76.538 22.165 77.768 21.445C78.998 20.715 80.413 20.35 82.013 20.35C83.713 20.35 85.158 20.75 86.348 21.55C87.538 22.35 88.418 23.475 88.988 24.925C89.558 26.375 89.758 28.08 89.588 30.04H85.553V28.54C85.553 26.89 85.288 25.705 84.758 24.985C84.238 24.255 83.383 23.89 82.193 23.89C80.803 23.89 79.778 24.315 79.118 25.165C78.468 26.005 78.143 27.25 78.143 28.9C78.143 30.41 78.468 31.58 79.118 32.41C79.778 33.23 80.743 33.64 82.013 33.64C82.813 33.64 83.498 33.465 84.068 33.115C84.638 32.765 85.073 32.26 85.373 31.6L89.453 32.77C88.843 34.25 87.878 35.4 86.558 36.22C85.248 37.04 83.813 37.45 82.253 37.45ZM76.883 30.04V27.01H87.623V30.04H76.883ZM106.631 37V8.4L99.8809 12.55V5.05L106.631 0.999999H113.581V37H106.631ZM136.436 37.75C133.769 37.75 131.436 37.1917 129.436 36.075C127.436 34.9583 125.878 33.4 124.761 31.4C123.644 29.4 123.086 27.0667 123.086 24.4V13.6C123.086 10.9333 123.644 8.6 124.761 6.6C125.878 4.6 127.436 3.04166 129.436 1.925C131.436 0.808332 133.769 0.249999 136.436 0.249999C139.103 0.249999 141.436 0.808332 143.436 1.925C145.436 3.04166 146.994 4.6 148.111 6.6C149.228 8.6 149.786 10.9333 149.786 13.6V24.4C149.786 27.0667 149.228 29.4 148.111 31.4C146.994 33.4 145.436 34.9583 143.436 36.075C141.436 37.1917 139.103 37.75 136.436 37.75ZM136.436 31.3C137.636 31.3 138.719 31.0167 139.686 30.45C140.653 29.8833 141.419 29.1167 141.986 28.15C142.553 27.1833 142.836 26.1 142.836 24.9V13.05C142.836 11.85 142.553 10.7667 141.986 9.8C141.419 8.83333 140.653 8.06667 139.686 7.5C138.719 6.93333 137.636 6.65 136.436 6.65C135.236 6.65 134.153 6.93333 133.186 7.5C132.219 8.06667 131.453 8.83333 130.886 9.8C130.319 10.7667 130.036 11.85 130.036 13.05V24.9C130.036 26.1 130.319 27.1833 130.886 28.15C131.453 29.1167 132.219 29.8833 133.186 30.45C134.153 31.0167 135.236 31.3 136.436 31.3ZM170.127 37.75C167.461 37.75 165.127 37.1917 163.127 36.075C161.127 34.9583 159.569 33.4 158.452 31.4C157.336 29.4 156.777 27.0667 156.777 24.4V13.6C156.777 10.9333 157.336 8.6 158.452 6.6C159.569 4.6 161.127 3.04166 163.127 1.925C165.127 0.808332 167.461 0.249999 170.127 0.249999C172.794 0.249999 175.127 0.808332 177.127 1.925C179.127 3.04166 180.686 4.6 181.802 6.6C182.919 8.6 183.477 10.9333 183.477 13.6V24.4C183.477 27.0667 182.919 29.4 181.802 31.4C180.686 33.4 179.127 34.9583 177.127 36.075C175.127 37.1917 172.794 37.75 170.127 37.75ZM170.127 31.3C171.327 31.3 172.411 31.0167 173.377 30.45C174.344 29.8833 175.111 29.1167 175.677 28.15C176.244 27.1833 176.527 26.1 176.527 24.9V13.05C176.527 11.85 176.244 10.7667 175.677 9.8C175.111 8.83333 174.344 8.06667 173.377 7.5C172.411 6.93333 171.327 6.65 170.127 6.65C168.927 6.65 167.844 6.93333 166.877 7.5C165.911 8.06667 165.144 8.83333 164.577 9.8C164.011 10.7667 163.727 11.85 163.727 13.05V24.9C163.727 26.1 164.011 27.1833 164.577 28.15C165.144 29.1167 165.911 29.8833 166.877 30.45C167.844 31.0167 168.927 31.3 170.127 31.3Z" fill="url(#paint0_linear_16_601)"/>
<defs>
<linearGradient id="paint0_linear_16_601" x1="-120.365" y1="2.72727" x2="-18.7433" y2="189.252" gradientUnits="userSpaceOnUse">
<stop offset="0.295712" stop-color="#F32C6D"/>
<stop offset="0.854729" stop-color="#CB1D95"/>
</linearGradient>
</defs>
</svg>
