<svg width="165" height="31" viewBox="0 0 165 31" fill="none" xmlns="http://www.w3.org/2000/svg">
<path d="M4.728 23.24C3.86933 23.24 3.136 23.0453 2.528 22.656C1.92 22.2667 1.45333 21.728 1.128 21.04C0.802667 20.352 0.64 19.5627 0.64 18.672C0.64 17.7653 0.805333 16.9707 1.136 16.288C1.46667 15.6053 1.936 15.0747 2.544 14.696C3.15733 14.312 3.88533 14.12 4.728 14.12C5.592 14.12 6.328 14.3147 6.936 14.704C7.54933 15.088 8.016 15.624 8.336 16.312C8.66133 16.9947 8.824 17.7813 8.824 18.672C8.824 19.5787 8.66133 20.376 8.336 21.064C8.01067 21.7467 7.54133 22.28 6.928 22.664C6.31467 23.048 5.58133 23.24 4.728 23.24ZM4.728 22.112C5.688 22.112 6.40267 21.7947 6.872 21.16C7.34133 20.52 7.576 19.6907 7.576 18.672C7.576 17.6267 7.33867 16.7947 6.864 16.176C6.39467 15.5573 5.68267 15.248 4.728 15.248C4.08267 15.248 3.54933 15.3947 3.128 15.688C2.712 15.976 2.4 16.3787 2.192 16.896C1.98933 17.408 1.888 18 1.888 18.672C1.888 19.712 2.128 20.5467 2.608 21.176C3.088 21.8 3.79467 22.112 4.728 22.112ZM12.7296 23V15.448H9.66563V14.36H16.9696V15.448H13.9056V23H12.7296Z" fill="#333333"/>
<path d="M28.9781 23.39C27.8981 23.39 26.8681 23.175 25.8881 22.745C24.9081 22.305 24.0531 21.69 23.3231 20.9C22.6031 20.11 22.0881 19.18 21.7781 18.11L25.7381 17.06C25.9481 17.85 26.3581 18.465 26.9681 18.905C27.5881 19.335 28.2581 19.55 28.9781 19.55C29.5981 19.55 30.1631 19.4 30.6731 19.1C31.1931 18.8 31.6031 18.395 31.9031 17.885C32.2131 17.375 32.3681 16.81 32.3681 16.19C32.3681 15.26 32.0481 14.465 31.4081 13.805C30.7781 13.135 29.9681 12.8 28.9781 12.8C28.6781 12.8 28.3881 12.845 28.1081 12.935C27.8281 13.015 27.5581 13.13 27.2981 13.28L25.4681 10.07L32.3381 4.37L32.6381 5.24H22.6181V1.4H36.1181V5.24L30.7781 10.4L30.7481 9.26C31.9881 9.45 33.0331 9.885 33.8831 10.565C34.7431 11.235 35.3931 12.065 35.8331 13.055C36.2831 14.035 36.5081 15.08 36.5081 16.19C36.5081 17.55 36.1631 18.775 35.4731 19.865C34.7831 20.945 33.8681 21.805 32.7281 22.445C31.5881 23.075 30.3381 23.39 28.9781 23.39ZM48.4127 23.45C46.8127 23.45 45.4127 23.115 44.2127 22.445C43.0127 21.775 42.0777 20.84 41.4077 19.64C40.7377 18.44 40.4027 17.04 40.4027 15.44V8.96C40.4027 7.36 40.7377 5.96 41.4077 4.76C42.0777 3.56 43.0127 2.625 44.2127 1.955C45.4127 1.285 46.8127 0.95 48.4127 0.95C50.0127 0.95 51.4127 1.285 52.6127 1.955C53.8127 2.625 54.7477 3.56 55.4177 4.76C56.0877 5.96 56.4227 7.36 56.4227 8.96V15.44C56.4227 17.04 56.0877 18.44 55.4177 19.64C54.7477 20.84 53.8127 21.775 52.6127 22.445C51.4127 23.115 50.0127 23.45 48.4127 23.45ZM48.4127 19.58C49.1327 19.58 49.7827 19.41 50.3627 19.07C50.9427 18.73 51.4027 18.27 51.7427 17.69C52.0827 17.11 52.2527 16.46 52.2527 15.74V8.63C52.2527 7.91 52.0827 7.26 51.7427 6.68C51.4027 6.1 50.9427 5.64 50.3627 5.3C49.7827 4.96 49.1327 4.79 48.4127 4.79C47.6927 4.79 47.0427 4.96 46.4627 5.3C45.8827 5.64 45.4227 6.1 45.0827 6.68C44.7427 7.26 44.5727 7.91 44.5727 8.63V15.74C44.5727 16.46 44.7427 17.11 45.0827 17.69C45.4227 18.27 45.8827 18.73 46.4627 19.07C47.0427 19.41 47.6927 19.58 48.4127 19.58ZM68.6276 23.45C67.0276 23.45 65.6276 23.115 64.4276 22.445C63.2276 21.775 62.2926 20.84 61.6226 19.64C60.9526 18.44 60.6176 17.04 60.6176 15.44V8.96C60.6176 7.36 60.9526 5.96 61.6226 4.76C62.2926 3.56 63.2276 2.625 64.4276 1.955C65.6276 1.285 67.0276 0.95 68.6276 0.95C70.2276 0.95 71.6276 1.285 72.8276 1.955C74.0276 2.625 74.9626 3.56 75.6326 4.76C76.3026 5.96 76.6376 7.36 76.6376 8.96V15.44C76.6376 17.04 76.3026 18.44 75.6326 19.64C74.9626 20.84 74.0276 21.775 72.8276 22.445C71.6276 23.115 70.2276 23.45 68.6276 23.45ZM68.6276 19.58C69.3476 19.58 69.9976 19.41 70.5776 19.07C71.1576 18.73 71.6176 18.27 71.9576 17.69C72.2976 17.11 72.4676 16.46 72.4676 15.74V8.63C72.4676 7.91 72.2976 7.26 71.9576 6.68C71.6176 6.1 71.1576 5.64 70.5776 5.3C69.9976 4.96 69.3476 4.79 68.6276 4.79C67.9076 4.79 67.2576 4.96 66.6776 5.3C66.0976 5.64 65.6376 6.1 65.2976 6.68C64.9576 7.26 64.7876 7.91 64.7876 8.63V15.74C64.7876 16.46 64.9576 17.11 65.2976 17.69C65.6376 18.27 66.0976 18.73 66.6776 19.07C67.2576 19.41 67.9076 19.58 68.6276 19.58ZM88.8424 23.45C87.2424 23.45 85.8424 23.115 84.6424 22.445C83.4424 21.775 82.5074 20.84 81.8374 19.64C81.1674 18.44 80.8324 17.04 80.8324 15.44V8.96C80.8324 7.36 81.1674 5.96 81.8374 4.76C82.5074 3.56 83.4424 2.625 84.6424 1.955C85.8424 1.285 87.2424 0.95 88.8424 0.95C90.4424 0.95 91.8424 1.285 93.0424 1.955C94.2424 2.625 95.1774 3.56 95.8474 4.76C96.5174 5.96 96.8524 7.36 96.8524 8.96V15.44C96.8524 17.04 96.5174 18.44 95.8474 19.64C95.1774 20.84 94.2424 21.775 93.0424 22.445C91.8424 23.115 90.4424 23.45 88.8424 23.45ZM88.8424 19.58C89.5624 19.58 90.2124 19.41 90.7924 19.07C91.3724 18.73 91.8324 18.27 92.1724 17.69C92.5124 17.11 92.6824 16.46 92.6824 15.74V8.63C92.6824 7.91 92.5124 7.26 92.1724 6.68C91.8324 6.1 91.3724 5.64 90.7924 5.3C90.2124 4.96 89.5624 4.79 88.8424 4.79C88.1224 4.79 87.4724 4.96 86.8924 5.3C86.3124 5.64 85.8524 6.1 85.5124 6.68C85.1724 7.26 85.0024 7.91 85.0024 8.63V15.74C85.0024 16.46 85.1724 17.11 85.5124 17.69C85.8524 18.27 86.3124 18.73 86.8924 19.07C87.4724 19.41 88.1224 19.58 88.8424 19.58ZM115.003 23.45C113.393 23.45 112.048 23.075 110.968 22.325C109.888 21.575 109.073 20.555 108.523 19.265C107.983 17.975 107.713 16.52 107.713 14.9C107.713 13.28 107.983 11.825 108.523 10.535C109.063 9.245 109.858 8.225 110.908 7.475C111.958 6.725 113.253 6.35 114.793 6.35C116.343 6.35 117.693 6.72 118.843 7.46C119.993 8.2 120.883 9.215 121.513 10.505C122.153 11.785 122.473 13.25 122.473 14.9C122.473 16.52 122.158 17.975 121.528 19.265C120.908 20.555 120.038 21.575 118.918 22.325C117.798 23.075 116.493 23.45 115.003 23.45ZM107.023 30.2V6.8H110.623V17.9H111.133V30.2H107.023ZM114.343 19.82C115.223 19.82 115.943 19.6 116.503 19.16C117.063 18.72 117.478 18.13 117.748 17.39C118.018 16.64 118.153 15.81 118.153 14.9C118.153 14 118.013 13.18 117.733 12.44C117.453 11.69 117.018 11.095 116.428 10.655C115.848 10.205 115.103 9.98 114.193 9.98C113.343 9.98 112.653 10.185 112.123 10.595C111.603 11.005 111.223 11.58 110.983 12.32C110.743 13.06 110.623 13.92 110.623 14.9C110.623 15.88 110.743 16.74 110.983 17.48C111.223 18.22 111.613 18.795 112.153 19.205C112.703 19.615 113.433 19.82 114.343 19.82ZM127.258 30.2L130.378 21.62L130.438 24.14L123.388 6.8H127.618L132.358 19.07H131.398L136.108 6.8H140.188L131.038 30.2H127.258ZM149.122 23.48C147.562 23.46 146.242 23.115 145.162 22.445C144.082 21.765 143.232 20.83 142.612 19.64C142.002 18.44 141.622 17.05 141.472 15.47C141.392 14.62 141.372 13.665 141.412 12.605C141.462 11.535 141.577 10.485 141.757 9.455C141.937 8.425 142.192 7.54 142.522 6.8C142.842 6.11 143.252 5.48 143.752 4.91C144.262 4.33 144.802 3.84 145.372 3.44C146.042 2.97 146.762 2.61 147.532 2.36C148.302 2.1 149.112 1.9 149.962 1.76C150.812 1.62 151.692 1.495 152.602 1.385C153.522 1.275 154.452 1.13 155.392 0.95L155.752 4.55C155.182 4.7 154.532 4.81 153.802 4.88C153.072 4.95 152.322 5.025 151.552 5.105C150.782 5.175 150.047 5.29 149.347 5.45C148.647 5.61 148.042 5.85 147.532 6.17C146.842 6.6 146.312 7.2 145.942 7.97C145.582 8.73 145.372 9.5 145.312 10.28C145.932 9.38 146.687 8.76 147.577 8.42C148.477 8.08 149.362 7.91 150.232 7.91C151.662 7.91 152.887 8.255 153.907 8.945C154.937 9.625 155.727 10.545 156.277 11.705C156.827 12.855 157.102 14.13 157.102 15.53C157.102 17.12 156.757 18.515 156.067 19.715C155.387 20.915 154.447 21.85 153.247 22.52C152.047 23.18 150.672 23.5 149.122 23.48ZM149.302 19.67C150.462 19.67 151.337 19.31 151.927 18.59C152.517 17.87 152.812 16.91 152.812 15.71C152.812 14.48 152.507 13.515 151.897 12.815C151.297 12.105 150.432 11.75 149.302 11.75C148.152 11.75 147.277 12.105 146.677 12.815C146.087 13.515 145.792 14.48 145.792 15.71C145.792 16.98 146.097 17.96 146.707 18.65C147.317 19.33 148.182 19.67 149.302 19.67ZM160.477 23V18.92H164.557V23H160.477Z" fill="url(#paint0_linear_16_685)"/>
<defs>
<linearGradient id="paint0_linear_16_685" x1="-106.667" y1="4.36364" x2="-72.9328" y2="115.025" gradientUnits="userSpaceOnUse">
<stop offset="0.295712" stop-color="#F32C6D"/>
<stop offset="0.854729" stop-color="#CB1D95"/>
</linearGradient>
</defs>
</svg>
