<svg width="461" height="106" viewBox="0 0 461 106" fill="none" xmlns="http://www.w3.org/2000/svg">
<path d="M16.055 35.675C19.775 35.675 22.895 34.7525 25.415 32.9075C27.95 31.0625 29.735 28.565 30.77 25.415L24.605 23.705C24.005 25.655 22.9925 27.1775 21.5675 28.2725C20.1425 29.3675 18.305 29.915 16.055 29.915C12.98 29.915 10.6625 28.91 9.1025 26.9C7.5575 24.875 6.785 22.175 6.785 18.8C6.785 15.425 7.5575 12.7325 9.1025 10.7225C10.6625 8.6975 12.98 7.685 16.055 7.685C18.305 7.685 20.1425 8.2325 21.5675 9.3275C22.9925 10.4075 24.005 11.93 24.605 13.895L30.77 12.185C29.735 9.035 27.95 6.5375 25.415 4.6925C22.895 2.8475 19.775 1.925 16.055 1.925C12.815 1.925 10.0175 2.63 7.6625 4.04C5.3225 5.45 3.515 7.4225 2.24 9.9575C0.98 12.4925 0.35 15.44 0.35 18.8C0.35 22.16 0.98 25.1075 2.24 27.6425C3.515 30.1775 5.3225 32.15 7.6625 33.56C10.0175 34.97 12.815 35.675 16.055 35.675ZM41.6642 35H47.7842V16.1H55.7492V10.7H33.6992V16.1H41.6642V35ZM62.2521 45.8H67.9221L81.6471 10.7H75.5271L69.1821 27.2375L62.7921 10.7H56.4471L66.2571 34.7975L62.2521 45.8ZM82.1322 40.4H87.8922V35H102.697V40.4H108.457V30.275H105.982V10.7H87.2172C87.1122 13.055 86.9772 15.38 86.8122 17.675C86.6622 19.955 86.4522 22.1 86.1822 24.11C85.8672 26.42 85.4322 28.025 84.8772 28.925C84.3372 29.825 83.4222 30.275 82.1322 30.275V40.4ZM89.9622 30.275C90.5772 29.645 91.0047 28.9175 91.2447 28.0925C91.4847 27.2675 91.6722 26.195 91.8072 24.875C91.9422 23.495 92.0697 21.9875 92.1897 20.3525C92.3247 18.7025 92.4372 17.06 92.5272 15.425H99.8622V30.275H89.9622ZM134.581 10.7H129.766L118.741 25.055V10.7H112.891V35H117.751L128.731 20.15V35H134.581V10.7ZM139.535 35H145.925L150.56 27.26C150.695 27.26 150.823 27.26 150.943 27.26C151.063 27.26 151.175 27.26 151.28 27.26H155.195V35H161.315V10.7H151.28C150.725 10.7 150.013 10.715 149.143 10.745C148.288 10.76 147.455 10.85 146.645 11.015C144.665 11.39 143.083 12.26 141.898 13.625C140.713 14.99 140.12 16.79 140.12 19.025C140.12 20.9 140.54 22.46 141.38 23.705C142.235 24.95 143.36 25.8575 144.755 26.4275L139.535 35ZM150.605 22.535C150.365 22.535 150.08 22.52 149.75 22.49C149.435 22.46 149.12 22.4 148.805 22.31C148.175 22.13 147.605 21.7475 147.095 21.1625C146.585 20.5625 146.33 19.835 146.33 18.98C146.33 18.17 146.57 17.4575 147.05 16.8425C147.53 16.2275 148.085 15.83 148.715 15.65C149.06 15.56 149.39 15.5 149.705 15.47C150.035 15.44 150.335 15.425 150.605 15.425H155.195V22.535H150.605ZM174.813 40.4H180.573V35H195.378V40.4H201.138V30.275H198.663V10.7H179.898C179.793 13.055 179.658 15.38 179.493 17.675C179.343 19.955 179.133 22.1 178.863 24.11C178.548 26.42 178.113 28.025 177.558 28.925C177.018 29.825 176.103 30.275 174.813 30.275V40.4ZM182.643 30.275C183.258 29.645 183.685 28.9175 183.925 28.0925C184.165 27.2675 184.353 26.195 184.488 24.875C184.623 23.495 184.75 21.9875 184.87 20.3525C185.005 18.7025 185.118 17.06 185.208 15.425H192.543V30.275H182.643ZM227.262 10.7H222.447L211.422 25.055V10.7H205.572V35H210.432L221.412 20.15V35H227.262V10.7ZM242.161 35.675C243.961 35.675 245.626 35.375 247.156 34.775C248.686 34.175 249.916 33.2825 250.846 32.0975C251.776 30.9125 252.241 29.45 252.241 27.71C252.241 26.54 252.016 25.49 251.566 24.56C251.131 23.63 250.516 22.85 249.721 22.22C250.336 21.44 250.771 20.645 251.026 19.835C251.296 19.025 251.431 18.2 251.431 17.36C251.431 15.725 250.996 14.3675 250.126 13.2875C249.271 12.1925 248.146 11.375 246.751 10.835C245.371 10.295 243.901 10.025 242.341 10.025C240.496 10.025 238.726 10.3775 237.031 11.0825C235.351 11.7725 233.821 12.695 232.441 13.85L235.816 18.035C236.716 17.405 237.714 16.8575 238.809 16.3925C239.904 15.9275 240.991 15.695 242.071 15.695C242.881 15.695 243.594 15.86 244.209 16.19C244.824 16.52 245.131 17.105 245.131 17.945C245.131 18.95 244.689 19.565 243.804 19.79C242.919 20 241.846 20.105 240.586 20.105H239.146V24.875H240.586C241.426 24.875 242.259 24.8825 243.084 24.8975C243.924 24.9125 244.614 25.07 245.154 25.37C245.709 25.67 245.986 26.24 245.986 27.08C245.986 27.95 245.641 28.6475 244.951 29.1725C244.276 29.6975 243.331 29.96 242.116 29.96C240.946 29.96 239.866 29.7125 238.876 29.2175C237.901 28.7225 236.986 28.04 236.131 27.17L231.316 30.41C232.426 32.045 233.941 33.335 235.861 34.28C237.796 35.21 239.896 35.675 242.161 35.675ZM263.959 35.675C265.834 35.675 267.409 35.39 268.684 34.82C269.974 34.235 271.159 33.305 272.239 32.03V35H277.594V20.15C277.594 19.04 277.549 18.035 277.459 17.135C277.369 16.235 277.084 15.335 276.604 14.435C275.749 12.815 274.489 11.675 272.824 11.015C271.159 10.355 269.254 10.025 267.109 10.025C264.184 10.025 261.874 10.655 260.179 11.915C258.484 13.175 257.329 14.81 256.714 16.82L262.249 18.575C262.639 17.465 263.321 16.6925 264.296 16.2575C265.271 15.8225 266.209 15.605 267.109 15.605C268.549 15.605 269.621 15.875 270.326 16.415C271.031 16.94 271.444 17.7725 271.564 18.9125C269.284 19.2425 267.274 19.565 265.534 19.88C263.794 20.18 262.339 20.54 261.169 20.96C259.219 21.68 257.846 22.6625 257.051 23.9075C256.256 25.1375 255.859 26.6 255.859 28.295C255.859 29.645 256.166 30.8825 256.781 32.0075C257.411 33.1175 258.326 34.01 259.526 34.685C260.741 35.345 262.219 35.675 263.959 35.675ZM265.264 30.86C264.214 30.86 263.381 30.6275 262.766 30.1625C262.151 29.6825 261.844 29.03 261.844 28.205C261.844 27.59 262.039 27.065 262.429 26.63C262.819 26.18 263.464 25.775 264.364 25.415C265.054 25.16 265.901 24.9275 266.906 24.7175C267.926 24.4925 269.464 24.2075 271.519 23.8625C271.504 24.4475 271.459 25.0925 271.384 25.7975C271.309 26.4875 271.144 27.095 270.889 27.62C270.724 27.965 270.409 28.3925 269.944 28.9025C269.494 29.4125 268.879 29.87 268.099 30.275C267.334 30.665 266.389 30.86 265.264 30.86ZM295.054 8C296.374 8 297.574 7.6775 298.654 7.0325C299.734 6.3875 300.596 5.525 301.241 4.445C301.886 3.365 302.209 2.165 302.209 0.844997H297.484C297.484 1.52 297.244 2.0975 296.764 2.5775C296.299 3.0425 295.729 3.275 295.054 3.275C294.379 3.275 293.801 3.0425 293.321 2.5775C292.856 2.0975 292.624 1.52 292.624 0.844997H287.899C287.899 2.165 288.221 3.365 288.866 4.445C289.511 5.525 290.374 6.3875 291.454 7.0325C292.534 7.6775 293.734 8 295.054 8ZM305.089 10.7H300.274L289.249 25.055V10.7H283.399V35H288.259L299.239 20.15V35H305.089V10.7ZM311.348 35H317.468V25.685H327.458V35H333.578V10.7H327.458V19.97H317.468V10.7H311.348V35ZM346.62 35.675C348.495 35.675 350.07 35.39 351.345 34.82C352.635 34.235 353.82 33.305 354.9 32.03V35H360.255V20.15C360.255 19.04 360.21 18.035 360.12 17.135C360.03 16.235 359.745 15.335 359.265 14.435C358.41 12.815 357.15 11.675 355.485 11.015C353.82 10.355 351.915 10.025 349.77 10.025C346.845 10.025 344.535 10.655 342.84 11.915C341.145 13.175 339.99 14.81 339.375 16.82L344.91 18.575C345.3 17.465 345.982 16.6925 346.957 16.2575C347.932 15.8225 348.87 15.605 349.77 15.605C351.21 15.605 352.282 15.875 352.987 16.415C353.692 16.94 354.105 17.7725 354.225 18.9125C351.945 19.2425 349.935 19.565 348.195 19.88C346.455 20.18 345 20.54 343.83 20.96C341.88 21.68 340.507 22.6625 339.712 23.9075C338.917 25.1375 338.52 26.6 338.52 28.295C338.52 29.645 338.827 30.8825 339.442 32.0075C340.072 33.1175 340.987 34.01 342.187 34.685C343.402 35.345 344.88 35.675 346.62 35.675ZM347.925 30.86C346.875 30.86 346.042 30.6275 345.427 30.1625C344.812 29.6825 344.505 29.03 344.505 28.205C344.505 27.59 344.7 27.065 345.09 26.63C345.48 26.18 346.125 25.775 347.025 25.415C347.715 25.16 348.562 24.9275 349.567 24.7175C350.587 24.4925 352.125 24.2075 354.18 23.8625C354.165 24.4475 354.12 25.0925 354.045 25.7975C353.97 26.4875 353.805 27.095 353.55 27.62C353.385 27.965 353.07 28.3925 352.605 28.9025C352.155 29.4125 351.54 29.87 350.76 30.275C349.995 30.665 349.05 30.86 347.925 30.86ZM2.85 100H7.745V65.0475H28.865V100H33.76V60.4H2.85V100ZM57.7482 100.825C61.7082 100.825 65.0632 99.9542 67.8132 98.2125C70.5632 96.4708 72.6532 94.0508 74.0832 90.9525C75.5132 87.8542 76.2282 84.27 76.2282 80.2C76.2282 76.13 75.5132 72.5458 74.0832 69.4475C72.6532 66.3492 70.5632 63.9292 67.8132 62.1875C65.0632 60.4458 61.7082 59.575 57.7482 59.575C53.8065 59.575 50.4515 60.4458 47.6832 62.1875C44.9332 63.9292 42.8432 66.3492 41.4132 69.4475C39.9832 72.5458 39.2682 76.13 39.2682 80.2C39.2682 84.27 39.9832 87.8542 41.4132 90.9525C42.8432 94.0508 44.9332 96.4708 47.6832 98.2125C50.4515 99.9542 53.8065 100.825 57.7482 100.825ZM57.7482 96.15C54.7965 96.1317 52.3307 95.4533 50.3507 94.115C48.389 92.7767 46.9132 90.9158 45.9232 88.5325C44.9332 86.1308 44.4473 83.3533 44.4657 80.2C44.484 77.0283 44.979 74.2417 45.9507 71.84C46.9407 69.4383 48.4165 67.5683 50.3782 66.23C52.3398 64.8917 54.7965 64.2317 57.7482 64.25C60.6998 64.2683 63.1565 64.9467 65.1182 66.285C67.0982 67.6233 68.574 69.4842 69.5457 71.8675C70.5357 74.2508 71.0307 77.0283 71.0307 80.2C71.0307 83.3533 70.5357 86.14 69.5457 88.56C68.574 90.9617 67.0982 92.8317 65.1182 94.17C63.1565 95.5083 60.6998 96.1683 57.7482 96.15ZM77.9271 100C79.8521 100.458 81.438 100.504 82.6846 100.138C83.9313 99.7708 84.9305 99.0833 85.6821 98.075C86.4521 97.0667 87.048 95.8108 87.4696 94.3075C87.9096 92.8042 88.2855 91.145 88.5971 89.33C89.3488 84.82 89.8805 80.4933 90.1921 76.35C90.5221 72.1883 90.7971 68.4208 91.0171 65.0475H106.967V100H111.862V60.4H86.3696C86.1863 64.745 85.9205 69.2092 85.5721 73.7925C85.2238 78.3575 84.6738 82.8308 83.9221 87.2125C83.5188 89.7058 83.0971 91.585 82.6571 92.85C82.2355 94.115 81.6671 94.94 80.9521 95.325C80.2371 95.71 79.2288 95.8475 77.9271 95.7375V100ZM119.564 100H124.459V82.51H145.304V100H150.199V60.4H145.304V77.8625H124.459V60.4H119.564V100ZM174.193 100.825C178.153 100.825 181.508 99.9542 184.258 98.2125C187.008 96.4708 189.098 94.0508 190.528 90.9525C191.958 87.8542 192.673 84.27 192.673 80.2C192.673 76.13 191.958 72.5458 190.528 69.4475C189.098 66.3492 187.008 63.9292 184.258 62.1875C181.508 60.4458 178.153 59.575 174.193 59.575C170.252 59.575 166.897 60.4458 164.128 62.1875C161.378 63.9292 159.288 66.3492 157.858 69.4475C156.428 72.5458 155.713 76.13 155.713 80.2C155.713 84.27 156.428 87.8542 157.858 90.9525C159.288 94.0508 161.378 96.4708 164.128 98.2125C166.897 99.9542 170.252 100.825 174.193 100.825ZM174.193 96.15C171.242 96.1317 168.776 95.4533 166.796 94.115C164.834 92.7767 163.358 90.9158 162.368 88.5325C161.378 86.1308 160.893 83.3533 160.911 80.2C160.929 77.0283 161.424 74.2417 162.396 71.84C163.386 69.4383 164.862 67.5683 166.823 66.23C168.785 64.8917 171.242 64.2317 174.193 64.25C177.145 64.2683 179.602 64.9467 181.563 66.285C183.543 67.6233 185.019 69.4842 185.991 71.8675C186.981 74.2508 187.476 77.0283 187.476 80.2C187.476 83.3533 186.981 86.14 185.991 88.56C185.019 90.9617 183.543 92.8317 181.563 94.17C179.602 95.5083 177.145 96.1683 174.193 96.15ZM198.197 100H203.092V65.0475H223.222V60.4H198.197V100ZM243.91 100.825C247.87 100.825 251.225 99.9542 253.975 98.2125C256.725 96.4708 258.815 94.0508 260.245 90.9525C261.675 87.8542 262.39 84.27 262.39 80.2C262.39 76.13 261.675 72.5458 260.245 69.4475C258.815 66.3492 256.725 63.9292 253.975 62.1875C251.225 60.4458 247.87 59.575 243.91 59.575C239.969 59.575 236.614 60.4458 233.845 62.1875C231.095 63.9292 229.005 66.3492 227.575 69.4475C226.145 72.5458 225.43 76.13 225.43 80.2C225.43 84.27 226.145 87.8542 227.575 90.9525C229.005 94.0508 231.095 96.4708 233.845 98.2125C236.614 99.9542 239.969 100.825 243.91 100.825ZM243.91 96.15C240.959 96.1317 238.493 95.4533 236.513 94.115C234.551 92.7767 233.075 90.9158 232.085 88.5325C231.095 86.1308 230.609 83.3533 230.628 80.2C230.646 77.0283 231.141 74.2417 232.113 71.84C233.103 69.4383 234.579 67.5683 236.54 66.23C238.502 64.8917 240.959 64.2317 243.91 64.25C246.862 64.2683 249.319 64.9467 251.28 66.285C253.26 67.6233 254.736 69.4842 255.708 71.8675C256.698 74.2508 257.193 77.0283 257.193 80.2C257.193 83.3533 256.698 86.14 255.708 88.56C254.736 90.9617 253.26 92.8317 251.28 94.17C249.319 95.5083 246.862 96.1683 243.91 96.15ZM309.642 105.5H314.537V95.545H310.274V60.95H305.379V95.545H283.819V60.4H278.924V100H309.642V105.5ZM349.491 100H344.541V69.035L323.889 100H318.939V60.4H323.889V91.3375L344.541 60.4H349.491V100ZM357.181 100H362.076V80.64L380.639 100H386.964L367.576 79.6225L385.561 60.4H379.401L362.076 78.99V60.4H357.181V100ZM388.054 100C389.979 100.458 391.565 100.504 392.812 100.138C394.058 99.7708 395.057 99.0833 395.809 98.075C396.579 97.0667 397.175 95.8108 397.597 94.3075C398.037 92.8042 398.412 91.145 398.724 89.33C399.476 84.82 400.007 80.4933 400.319 76.35C400.649 72.1883 400.924 68.4208 401.144 65.0475H417.094V100H421.989V60.4H396.497C396.313 64.745 396.047 69.2092 395.699 73.7925C395.351 78.3575 394.801 82.8308 394.049 87.2125C393.646 89.7058 393.224 91.585 392.784 92.85C392.362 94.115 391.794 94.94 391.079 95.325C390.364 95.71 389.356 95.8475 388.054 95.7375V100ZM426.941 100H432.028L435.136 90.7325H452.048L455.183 100H460.271L447.016 60.4H440.196L426.941 100ZM436.676 86.14L443.551 65.5425L450.508 86.14H436.676Z" fill="#333333"/>
</svg>
